<svg xmlns="http://www.w3.org/2000/svg" width="750" height="310" viewBox="0 0 750 310">
  <defs>
    <style>
      path {
        fill-rule: evenodd;
      }
    </style>
  </defs>
  <path id="moeum" fill="currentColor" d="M345,0h34V20h88V1h32V310H467V264H255V230H467V48H257V20h88V0ZM596,0h34V21h86V2h33V230H716V180H681V153h35V105H681V78h35V49H507V21h89V0ZM217,1h32V309H217V1ZM506,210h32v74H750v26H506V210Z"/>
  <path id="ieun" class="text-info" d="M99,66c42.044-.656,65.961,12.124,81,38l7,21v15c-0.04,37.75-24.789,59.334-54,68C71.361,226.287,16.455,166.094,41,108c6.414-15.181,19.835-29.626,35-36C82.853,69.12,92.737,69.949,99,66Zm2,22c-3.254,2.074-8.117,1.381-12,3a51.606,51.606,0,0,0-30,33c-12.2,41.26,29.57,76.143,69,63,26.27-8.756,50.244-43.624,30-76C147.547,94.283,129.062,87.531,101,88Z"/>
  <path id="hee" class="text-danger" d="M350,66c104.239-2.458,117.365,119,34,142-63.063,17.4-116.875-39.969-92-100C303.374,80.551,322.219,77.713,350,66Zm2,22c-20.479,9-35.781,13.157-42,36-11.665,42.845,27.94,76.118,69,63C436.352,168.678,426.791,85.863,352,88Z"/>
  <path id="hyun" class="text-success" d="M599,66c99.228-3.23,116.826,119.945,34,142C529.915,235.45,497.6,95.554,599,66Zm2,22c-71.262,22.947-44.775,121.673,27,99C684.846,169.043,672.278,84.9,601,88Z"/>
</svg>
